<?xml version="1.0" encoding="utf-8"?>
<!-- Generator: Adobe Illustrator 25.2.1, SVG Export Plug-In . SVG Version: 6.00 Build 0)  -->
<svg version="1.1" id="Ebene_1" xmlns="http://www.w3.org/2000/svg" xmlns:xlink="http://www.w3.org/1999/xlink" x="0px" y="0px"
	 viewBox="0 0 373.37 113.39" style="enable-background:new 0 0 373.37 113.39;" xml:space="preserve">
<style type="text/css">
	.st0{fill:#394D55;}
	.st1{fill:#FF7300;}
</style>
<g>
	<path class="st0" d="M120.64,68.48c0.22,4.92,2.62,7.16,6.94,7.16c3.12,0,5.63-1.92,6.12-3.66h6.83
		c-2.19,6.67-6.83,9.51-13.22,9.51c-8.91,0-14.43-6.12-14.43-14.86c0-8.47,5.84-14.92,14.43-14.92c9.62,0,14.26,8.09,13.72,16.78
		H120.64z M133.26,63.56c-0.71-3.93-2.4-6.01-6.17-6.01c-4.92,0-6.34,3.82-6.45,6.01H133.26z"/>
	<path class="st0" d="M146.38,41.7h7.76v39.02h-7.76V41.7z"/>
	<path class="st0" d="M168.73,48.1h-7.76v-6.4h7.76V48.1z M160.97,52.47h7.76v28.25h-7.76V52.47z"/>
	<path class="st0" d="M175.06,61.16c0.44-7.27,6.94-9.46,13.28-9.46c5.63,0,12.41,1.25,12.41,8.03v14.7c0,2.57,0.27,5.14,0.99,6.28
		h-7.87c-0.27-0.87-0.49-1.8-0.55-2.73c-2.46,2.57-6.07,3.5-9.51,3.5c-5.35,0-9.62-2.68-9.62-8.47c0-6.39,4.81-7.92,9.62-8.58
		c4.75-0.71,9.18-0.55,9.18-3.71c0-3.34-2.29-3.83-5.03-3.83c-2.95,0-4.86,1.2-5.14,4.27H175.06z M192.99,66.9
		c-1.31,1.14-4.04,1.2-6.45,1.64c-2.4,0.49-4.59,1.31-4.59,4.15c0,2.9,2.24,3.61,4.75,3.61c6.07,0,6.28-4.8,6.28-6.5V66.9z"/>
	<path class="st0" d="M250.15,78.92c0,4.64-1.64,12.52-14.65,12.52c-5.57,0-12.08-2.63-12.46-9.08h7.7c0.71,2.9,3.06,3.88,5.79,3.88
		c4.32,0,6.28-2.95,6.23-6.99v-3.72h-0.11c-1.7,2.96-5.08,4.37-8.47,4.37c-8.47,0-12.08-6.45-12.08-14.21
		c0-7.32,4.21-13.99,12.13-13.99c3.72,0,6.56,1.25,8.42,4.54h0.11v-3.77h7.38V78.92z M242.77,66.24c0-4.59-1.59-8.69-6.61-8.69
		c-4.37,0-6.28,3.82-6.28,8.04c0,4.04,1.53,8.47,6.28,8.47C240.58,74.06,242.77,70.29,242.77,66.24z"/>
	<path class="st0" d="M256.92,52.47h7.38v5.24h0.11c1.42-3.55,5.25-6.01,9.02-6.01c0.55,0,1.2,0.11,1.69,0.27v7.21
		c-0.71-0.16-1.86-0.27-2.79-0.27c-5.68,0-7.65,4.1-7.65,9.07v12.73h-7.76V52.47z"/>
	<path class="st0" d="M291.51,51.7c8.91,0,14.65,5.9,14.65,14.92c0,8.96-5.74,14.86-14.65,14.86c-8.85,0-14.59-5.9-14.59-14.86
		C276.92,57.61,282.66,51.7,291.51,51.7z M291.51,75.64c5.3,0,6.88-4.54,6.88-9.02c0-4.54-1.58-9.07-6.88-9.07
		c-5.25,0-6.83,4.54-6.83,9.07C284.68,71.1,286.26,75.64,291.51,75.64z"/>
	<path class="st0" d="M338.17,80.72h-7.38v-3.94h-0.17c-1.97,3.18-5.36,4.7-8.63,4.7c-8.25,0-10.33-4.64-10.33-11.64V52.47h7.76
		v15.96c0,4.65,1.37,6.94,4.97,6.94c4.21,0,6.01-2.35,6.01-8.09V52.47h7.76V80.72z"/>
	<path class="st0" d="M344.62,52.47H352v3.61h0.11c1.86-3.01,4.92-4.37,8.41-4.37c8.85,0,12.84,7.16,12.84,15.19
		c0,7.54-4.15,14.59-12.4,14.59c-3.39,0-6.61-1.47-8.47-4.26h-0.11v13.44h-7.76V52.47z M365.61,66.68c0-4.48-1.81-9.12-6.78-9.12
		c-5.08,0-6.72,4.54-6.72,9.12c0,4.59,1.75,8.96,6.78,8.96C363.97,75.64,365.61,71.27,365.61,66.68z"/>
</g>
<path class="st1" d="M300.25,19.07l-121.29,4.48l-25.48,1.38l-6.26,0.34l-7.86,0.44c-2.03-8.16-8.58-13.87-19.09-15.28
	c-17.03-2.29-36.66,7.44-46.79,19.49c-2.85,3.39-5.73,8.5-5.87,10.87l-7.5,1.06c3.94-14.48,20.1-29.32,41.28-36.34
	c19.52-6.48,37.88-4.52,47.72,3.79C140.08-0.63,119.39-3.1,97.1,4.29c-23.16,7.68-40.7,23.57-43.81,38.3l-24.42,3.76L0,50.48v0.14
	l52.9-1.44c0.07,0.62,0.15,1.24,0.28,1.85c1.6,7.73,10.2,11.66,18.77,14.19c-5.21-3.09-11.09-6.37-12.33-12.38
	c-0.25-1.19-0.38-2.4-0.42-3.62l3.63-0.32l3.29-0.1c1.29,8.01,9.52,14.72,21.54,15.59c5.2,0.37,10.64-0.31,15.94-1.77v-3.54
	c-5.3,1.43-11.15,2.09-17.52,1.75C75.8,60.3,69.42,55.4,67.42,48.79l14.79-0.41c0.23,0.23,0.48,0.44,0.76,0.63
	c4.08,4.77,12.04,6.7,20.6,5.01v-4.68c-9.58,2.03-18.05-0.21-19.88-5.67c-2.08-6.24,5.3-14.33,16.49-18.06
	c11.19-3.73,21.95-1.7,24.03,4.54c0.58,1.73,0.41,3.6-0.35,5.48l46.64-4.42l0,0l8.38-0.81l124.3-11.34H300.25z M125.44,26.56
	c-4.14-7.44-16.22-9.79-27.98-5.16c-8.21,3.23-14.19,9.05-16.38,15.08c-0.41,0.85-0.73,1.69-0.96,2.51l-7.81,1.12
	c0.7-1.85,1.67-3.73,2.95-5.62c11.1-16.37,30.84-23.4,47.23-21.2c8.98,1.2,13.94,6.43,15.59,12.47L125.44,26.56z"/>
</svg>
