<svg xmlns="http://www.w3.org/2000/svg" xml:space="preserve" width="404.28" height="151.173"><path d="M1128.13 152.387h10.38V0h-10.38z" style="fill:#f36518;fill-opacity:1;fill-rule:nonzero;stroke:none" transform="matrix(.13333 0 0 -.13333 0 151.173)"/><path d="M1227.35 141.43h75.12v-12.2h-60.63V94.621h56.52v-12.14h-56.52V44.82h61.09v-12.2h-75.58zM1327.49 141.43h12.95V32.621h-12.95zM1369.67 111.391h12.95v-78.77h-12.95zm12.95 14.187h-12.95v15.852h12.95zM1459.88 73.29c-10.04-7.47-39.32-.099-39.32-19.5 0-8.49 7.33-11.552 15.25-11.552 17.06 0 24.07 10.532 24.07 17.832zm21.02-40.349c-2.26-1.39-5.48-2.152-9.3-2.152-6.69 0-10.96 3.66-10.96 12.2-7.14-8.54-16.76-12.2-27.73-12.2-14.32 0-26.05 6.23-26.05 22.082 0 17.848 13.27 21.82 26.68 24.238 14.15 2.903 26.51 1.72 26.51 11.602 0 11.449-9.46 13.117-17.52 13.117-10.99 0-19.07-3.387-19.67-14.937h-12.95c.75 19.5 15.7 26.328 33.37 26.328 14.16 0 29.55-3.168 29.55-21.61V51.051c0-6.082 0-8.813 4.11-8.813 1.21 0 2.61.32 3.96.75zM1635.6 46.21c-8.55-11.288-22.25-16.17-34.91-16.17-32.48 0-51.82 26.382-51.82 54.858 0 31.704 17.38 59.11 51.82 59.11 23.63 0 42.81-10.637 46.78-36.11h-14.45c-2.9 16.442-16.02 23.911-32.33 23.911-26.35 0-37.34-23-37.34-46.149 0-22.68 13.11-43.422 37.34-43.422 22.55 0 35.66 15.531 34.91 35.524h-34.77v12.187h47.71V32.621h-9.13zM1675.68 111.391h12.17V94.789h.29c6.26 12.84 14.95 18.91 28.97 18.43V99.512c-20.88 0-28.48-11.703-28.48-31.801V32.62h-12.95zM1769.23 42.238c13.54 0 24.53 10.633 24.53 29.711 0 19.02-10.99 29.879-24.53 29.879-13.57 0-24.55-10.86-24.55-29.879 0-19.078 10.98-29.71 24.55-29.71m0 70.981c24.99 0 38.26-18.11 38.26-41.27 0-22.988-13.27-41.16-38.26-41.16-24.98 0-38.25 18.172-38.25 41.16 0 23.16 13.27 41.27 38.25 41.27M1896.31 32.621h-12.2v12.52h-.29c-5.48-9.79-14.16-14.352-25.61-14.352-20.74 0-27.14 11.883-27.14 28.8v51.802h12.95V58.09c0-9.79 6.14-15.852 16.02-15.852 15.69 0 23.32 10.531 23.32 24.66v44.493h12.95zM1961.25 101.828c-17.55 0-24.1-15.097-24.1-29.719 0-15.418 7.04-29.87 24.85-29.87 17.68 0 23.62 15.1 23.62 30.472 0 14.77-7.63 29.117-24.37 29.117m-36.56 9.563h12.95V100.75h.29c4.27 8.711 14.16 12.469 25.15 12.469 24.21 0 36.24-19.18 36.24-41.43 0-22.398-11.88-41-35.95-41-7.92 0-19.8 3.063-25.44 12.36h-.29V2.468h-12.95z" style="fill:#31444c;fill-opacity:1;fill-rule:nonzero;stroke:none" transform="matrix(.13333 0 0 -.13333 0 151.173)"/><path d="M1254.41 868.25c-41.4 74.422-162.16 97.93-279.82 51.609-82.07-32.293-141.856-90.515-163.75-150.769-4.082-8.496-7.305-16.906-9.668-25.156l-78.106-11.172c7.012 18.457 16.68 37.293 29.5 56.258C863.523 952.664 1060.92 1023.04 1224.8 1001c89.85-12.039 139.44-64.324 155.88-124.715zm1748.03 74.93-1212.9-44.813-254.75-13.808-62.54-3.332-78.68-4.383c-20.3 81.601-85.81 138.696-190.9 152.856-170.35 22.85-366.576-74.399-467.943-194.927-28.504-33.878-57.254-85.031-58.653-108.671l-75.011-10.645c39.359 144.813 201.015 293.173 412.807 363.403 195.19 64.76 378.8 45.17 477.23-37.89-90.32 99.18-297.22 123.87-520.131 49.98-231.567-76.84-406.926-235.727-438.098-382.985l-244.187-37.539L0 629.031v-1.426l528.953 14.454c.695-6.231 1.508-12.442 2.735-18.536 16.015-77.269 102.042-116.597 187.699-141.91-52.121 30.899-110.91 63.731-123.293 123.805-2.5 11.875-3.789 24.012-4.219 36.211l36.27 3.144 32.89.997c12.891-80.118 95.156-147.235 215.36-155.875 52.011-3.661 106.339 3.117 159.395 17.675v35.41c-53.009-14.296-111.466-20.906-175.192-17.46-102.578 5.371-166.418 54.371-186.399 120.464l147.918 4.082c2.258-2.285 4.863-4.355 7.641-6.339 40.828-47.715 120.41-66.954 206.032-50.086v46.777c-95.829-20.285-180.517 2.129-198.727 56.746-20.852 62.383 52.976 143.281 164.907 180.598 111.88 37.343 219.5 17 240.3-45.43 5.78-17.246 4.06-36.008-3.52-54.816l466.43 44.23 83.82 8.113L3032.05 943.18z" style="fill:#f36518;fill-opacity:1;fill-rule:nonzero;stroke:none" transform="matrix(.13333 0 0 -.13333 0 151.173)"/><path d="M1332.97 498.273c-7.09 39.278-24.04 60.063-61.74 60.063-49.2 0-63.41-38.246-64.51-60.063zm-126.25-49.218c2.21-49.168 26.25-71.571 69.39-71.571 31.18 0 56.29 19.121 61.23 36.59h68.3c-21.87-66.629-68.3-95.058-132.23-95.058-89.07 0-144.25 61.203-144.25 148.632 0 84.68 58.43 149.157 144.25 149.157 96.18 0 142.61-80.864 137.15-167.75zM1464.08 716.832h77.62V326.645h-77.62zM1609.99 609.176h77.59V326.645h-77.59zm77.59 43.683h-77.59v63.973h77.59zM1930.21 464.906c-13.1-11.445-40.42-12.043-64.48-16.386-24.04-4.942-45.89-13.059-45.89-41.485 0-29.015 22.39-36.113 47.53-36.113 60.67 0 62.84 48.035 62.84 65.074zm-179.25 57.332c4.38 72.7 69.4 94.567 132.78 94.567 56.31 0 124.07-12.551 124.07-80.328V389.516c0-25.688 2.74-51.426 9.83-62.871h-78.67c-2.74 8.757-4.94 18.054-5.47 27.304-24.59-25.683-60.67-34.933-95.11-34.933-53.53 0-96.13 26.757-96.13 84.687 0 63.945 48.03 79.258 96.13 85.813 47.55 7.089 91.82 5.476 91.82 37.129 0 33.363-22.93 38.253-50.29 38.253-29.5 0-48.63-12.035-51.37-42.66z" style="fill:#31444c;fill-opacity:1;fill-rule:nonzero;stroke:none" transform="matrix(.13333 0 0 -.13333 0 151.173)"/></svg>