<?xml version="1.0" encoding="UTF-8"?>
<svg id="Calque_1" xmlns="http://www.w3.org/2000/svg" version="1.1" viewBox="0 0 841.9 595.3">
  <!-- Generator: Adobe Illustrator 29.0.0, SVG Export Plug-In . SVG Version: 2.1.0 Build 186)  -->
  <defs>
    <style>
      .st0 {
        fill: #27a999;
      }

      .st1 {
        fill: #ef7e16;
      }

      .st2 {
        fill: #047789;
      }

      .st3 {
        fill: #435056;
      }
    </style>
  </defs>
  <path class="st3" d="M211.2,285.9c0,18.9-14.2,30.6-36.8,30.6h-17.1v23.3h-19.6v-84.7h36.7c22.6,0,36.8,11.7,36.8,30.7ZM191.4,285.9c0-9.3-6-14.8-18-14.8h-16v29.4h16c12,0,18-5.4,18-14.6Z"/>
  <path class="st3" d="M279.1,339.8l-16.3-23.6h-18v23.6h-19.6v-84.7h36.7c22.6,0,36.8,11.7,36.8,30.7s-6.4,22-17.4,26.7l19,27.2h-21ZM260.7,271.1h-16v29.5h16c12,0,18-5.6,18-14.8s-6-14.8-18-14.8Z"/>
  <path class="st3" d="M402.3,255.2h38.5c27.7,0,46.7,16.7,46.7,42.3s-19,42.3-46.7,42.3h-38.5v-84.7ZM439.8,323.7c16.8,0,27.8-10,27.8-26.3s-11-26.3-27.8-26.3h-17.9v52.5h17.9Z"/>
  <path class="st3" d="M502.2,255.2h19.6v84.7h-19.6v-84.7Z"/>
  <path class="st3" d="M536.6,297.5c0-25.5,19.6-43.8,46-43.8s26.9,5.3,34.8,15l-12.6,11.6c-5.7-6.5-12.8-9.9-21.3-9.9-15.8,0-27.1,11.1-27.1,27.1s11.2,27.1,27.1,27.1,15.6-3.4,21.3-10l12.6,11.6c-8,9.8-20.2,15.1-35,15.1-26.3,0-45.8-18.3-45.8-43.8Z"/>
  <path class="st3" d="M623.4,297.5c0-25.2,19.6-43.8,46.3-43.8s46.3,18.5,46.3,43.8-19.7,43.8-46.3,43.8-46.3-18.6-46.3-43.8ZM696.2,297.5c0-16.1-11.4-27.1-26.5-27.1s-26.5,11-26.5,27.1,11.4,27.1,26.5,27.1,26.5-11,26.5-27.1Z"/>
  <rect class="st0" x="314.5" y="322" width="70.2" height="17.8"/>
  <rect class="st2" x="327.4" y="288.7" width="57.4" height="17.8"/>
  <rect class="st1" x="343.7" y="255.4" width="41" height="17.8"/>
</svg>